<?xml version="1.0" encoding="UTF-8"?>
<svg xmlns:xhtml="http://www.w3.org/1999/xhtml" xmlns:xlink="http://www.w3.org/1999/xlink" xmlns="http://www.w3.org/2000/svg" id="mermaid-svg-28" width="100%" class="flowchart" style="max-width: 100%;" viewBox="-55.420996093750006 -55.420996093750006 1740.1349609375002 1219.2619140625002" height="100%"><style>#mermaid-svg-28{font-family:"trebuchet ms",verdana,arial,sans-serif;font-size:16px;fill:#ccc;}@keyframes edge-animation-frame{from{stroke-dashoffset:0;}}@keyframes dash{to{stroke-dashoffset:0;}}#mermaid-svg-28 .edge-animation-slow{stroke-dasharray:9,5!important;stroke-dashoffset:900;animation:dash 50s linear infinite;stroke-linecap:round;}#mermaid-svg-28 .edge-animation-fast{stroke-dasharray:9,5!important;stroke-dashoffset:900;animation:dash 20s linear infinite;stroke-linecap:round;}#mermaid-svg-28 .error-icon{fill:#a44141;}#mermaid-svg-28 .error-text{fill:#ddd;stroke:#ddd;}#mermaid-svg-28 .edge-thickness-normal{stroke-width:1px;}#mermaid-svg-28 .edge-thickness-thick{stroke-width:3.5px;}#mermaid-svg-28 .edge-pattern-solid{stroke-dasharray:0;}#mermaid-svg-28 .edge-thickness-invisible{stroke-width:0;fill:none;}#mermaid-svg-28 .edge-pattern-dashed{stroke-dasharray:3;}#mermaid-svg-28 .edge-pattern-dotted{stroke-dasharray:2;}#mermaid-svg-28 .marker{fill:lightgrey;stroke:lightgrey;}#mermaid-svg-28 .marker.cross{stroke:lightgrey;}#mermaid-svg-28 svg{font-family:"trebuchet ms",verdana,arial,sans-serif;font-size:16px;}#mermaid-svg-28 p{margin:0;}#mermaid-svg-28 .label{font-family:"trebuchet ms",verdana,arial,sans-serif;color:#ccc;}#mermaid-svg-28 .cluster-label text{fill:#F9FFFE;}#mermaid-svg-28 .cluster-label span{color:#F9FFFE;}#mermaid-svg-28 .cluster-label span p{background-color:transparent;}#mermaid-svg-28 .label text,#mermaid-svg-28 span{fill:#ccc;color:#ccc;}#mermaid-svg-28 .node rect,#mermaid-svg-28 .node circle,#mermaid-svg-28 .node ellipse,#mermaid-svg-28 .node polygon,#mermaid-svg-28 .node path{fill:#1f2020;stroke:#ccc;stroke-width:1px;}#mermaid-svg-28 .rough-node .label text,#mermaid-svg-28 .node .label text,#mermaid-svg-28 .image-shape .label,#mermaid-svg-28 .icon-shape .label{text-anchor:middle;}#mermaid-svg-28 .node .katex path{fill:#000;stroke:#000;stroke-width:1px;}#mermaid-svg-28 .rough-node .label,#mermaid-svg-28 .node .label,#mermaid-svg-28 .image-shape .label,#mermaid-svg-28 .icon-shape .label{text-align:center;}#mermaid-svg-28 .node.clickable{cursor:pointer;}#mermaid-svg-28 .root .anchor path{fill:lightgrey!important;stroke-width:0;stroke:lightgrey;}#mermaid-svg-28 .arrowheadPath{fill:lightgrey;}#mermaid-svg-28 .edgePath .path{stroke:lightgrey;stroke-width:2.0px;}#mermaid-svg-28 .flowchart-link{stroke:lightgrey;fill:none;}#mermaid-svg-28 .edgeLabel{background-color:hsl(0, 0%, 34.4117647059%);text-align:center;}#mermaid-svg-28 .edgeLabel p{background-color:hsl(0, 0%, 34.4117647059%);}#mermaid-svg-28 .edgeLabel rect{opacity:0.5;background-color:hsl(0, 0%, 34.4117647059%);fill:hsl(0, 0%, 34.4117647059%);}#mermaid-svg-28 .labelBkg{background-color:rgba(87.75, 87.75, 87.75, 0.5);}#mermaid-svg-28 .cluster rect{fill:hsl(180, 1.5873015873%, 28.3529411765%);stroke:rgba(255, 255, 255, 0.25);stroke-width:1px;}#mermaid-svg-28 .cluster text{fill:#F9FFFE;}#mermaid-svg-28 .cluster span{color:#F9FFFE;}#mermaid-svg-28 div.mermaidTooltip{position:absolute;text-align:center;max-width:200px;padding:2px;font-family:"trebuchet ms",verdana,arial,sans-serif;font-size:12px;background:hsl(20, 1.5873015873%, 12.3529411765%);border:1px solid rgba(255, 255, 255, 0.25);border-radius:2px;pointer-events:none;z-index:100;}#mermaid-svg-28 .flowchartTitleText{text-anchor:middle;font-size:18px;fill:#ccc;}#mermaid-svg-28 rect.text{fill:none;stroke-width:0;}#mermaid-svg-28 .icon-shape,#mermaid-svg-28 .image-shape{background-color:hsl(0, 0%, 34.4117647059%);text-align:center;}#mermaid-svg-28 .icon-shape p,#mermaid-svg-28 .image-shape p{background-color:hsl(0, 0%, 34.4117647059%);padding:2px;}#mermaid-svg-28 .icon-shape rect,#mermaid-svg-28 .image-shape rect{opacity:0.5;background-color:hsl(0, 0%, 34.4117647059%);fill:hsl(0, 0%, 34.4117647059%);}#mermaid-svg-28 .label-icon{display:inline-block;height:1em;overflow:visible;vertical-align:-0.125em;}#mermaid-svg-28 .node .label-icon path{fill:currentColor;stroke:revert;stroke-width:revert;}#mermaid-svg-28 :root{--mermaid-font-family:"trebuchet ms",verdana,arial,sans-serif;}</style><g><marker id="mermaid-svg-28_flowchart-v2-pointEnd" class="marker flowchart-v2" viewBox="0 0 10 10" refX="5" refY="5" markerUnits="userSpaceOnUse" markerWidth="8" markerHeight="8" orient="auto"><path d="M 0 0 L 10 5 L 0 10 z" class="arrowMarkerPath" style="stroke-width: 1; stroke-dasharray: 1, 0;"/></marker><marker id="mermaid-svg-28_flowchart-v2-pointStart" class="marker flowchart-v2" viewBox="0 0 10 10" refX="4.5" refY="5" markerUnits="userSpaceOnUse" markerWidth="8" markerHeight="8" orient="auto"><path d="M 0 5 L 10 10 L 10 0 z" class="arrowMarkerPath" style="stroke-width: 1; stroke-dasharray: 1, 0;"/></marker><marker id="mermaid-svg-28_flowchart-v2-circleEnd" class="marker flowchart-v2" viewBox="0 0 10 10" refX="11" refY="5" markerUnits="userSpaceOnUse" markerWidth="11" markerHeight="11" orient="auto"><circle cx="5" cy="5" r="5" class="arrowMarkerPath" style="stroke-width: 1; stroke-dasharray: 1, 0;"/></marker><marker id="mermaid-svg-28_flowchart-v2-circleStart" class="marker flowchart-v2" viewBox="0 0 10 10" refX="-1" refY="5" markerUnits="userSpaceOnUse" markerWidth="11" markerHeight="11" orient="auto"><circle cx="5" cy="5" r="5" class="arrowMarkerPath" style="stroke-width: 1; stroke-dasharray: 1, 0;"/></marker><marker id="mermaid-svg-28_flowchart-v2-crossEnd" class="marker cross flowchart-v2" viewBox="0 0 11 11" refX="12" refY="5.2" markerUnits="userSpaceOnUse" markerWidth="11" markerHeight="11" orient="auto"><path d="M 1,1 l 9,9 M 10,1 l -9,9" class="arrowMarkerPath" style="stroke-width: 2; stroke-dasharray: 1, 0;"/></marker><marker id="mermaid-svg-28_flowchart-v2-crossStart" class="marker cross flowchart-v2" viewBox="0 0 11 11" refX="-1" refY="5.2" markerUnits="userSpaceOnUse" markerWidth="11" markerHeight="11" orient="auto"><path d="M 1,1 l 9,9 M 10,1 l -9,9" class="arrowMarkerPath" style="stroke-width: 2; stroke-dasharray: 1, 0;"/></marker><g class="root"><g class="clusters"><g class="cluster" id="Результаты" data-look="classic"><rect style="" x="956.12109375" y="947" width="665.171875" height="153.41986083984375"/><g class="cluster-label" transform="translate(1246.87109375, 947)"><foreignObject width="83.671875" height="24"><div xmlns="http://www.w3.org/1999/xhtml" style="display: table-cell; white-space: nowrap; line-height: 1.5; max-width: 200px; text-align: center;"><span class="nodeLabel"><p>Результаты</p></span></div></foreignObject></g></g><g class="cluster" id="subGraph1" data-look="classic"><rect style="" x="8" y="161" width="928.12109375" height="939.4198608398438"/><g class="cluster-label" transform="translate(391.357421875, 161)"><foreignObject width="161.40625" height="24"><div xmlns="http://www.w3.org/1999/xhtml" style="display: table-cell; white-space: nowrap; line-height: 1.5; max-width: 200px; text-align: center;"><span class="nodeLabel"><p>SAST WebHook Service</p></span></div></foreignObject></g></g><g class="cluster" id="subGraph0" data-look="classic"><rect style="" x="1062.26953125" y="8" width="492.875" height="713"/><g class="cluster-label" transform="translate(1241.95703125, 8)"><foreignObject width="133.5" height="24"><div xmlns="http://www.w3.org/1999/xhtml" style="display: table-cell; white-space: nowrap; line-height: 1.5; max-width: 200px; text-align: center;"><span class="nodeLabel"><p>Внешние системы</p></span></div></foreignObject></g></g></g><g class="edgePaths"><path d="M1193.199,87L1193.199,93.167C1193.199,99.333,1193.199,111.667,1193.199,124C1193.199,136.333,1193.199,148.667,1098.329,163.806C1003.459,178.945,813.719,196.89,718.848,205.862L623.978,214.835" id="L_TFS_WebhookEP_0" class="edge-thickness-normal edge-pattern-solid edge-thickness-normal edge-pattern-solid flowchart-link" style="" marker-end="url(#mermaid-svg-28_flowchart-v2-pointEnd)"/><path d="M1429.637,87L1429.637,93.167C1429.637,99.333,1429.637,111.667,1429.637,124C1429.637,136.333,1429.637,148.667,1295.362,164.244C1161.087,179.822,892.536,198.644,758.261,208.055L623.986,217.466" id="L_Git_WebhookEP_0" class="edge-thickness-normal edge-pattern-solid edge-thickness-normal edge-pattern-solid flowchart-link" style="" marker-end="url(#mermaid-svg-28_flowchart-v2-pointEnd)"/><path d="M619.996,257.772L649.066,266.976C678.137,276.181,736.277,294.591,765.348,311.295C794.418,328,794.418,343,794.418,350.5L794.418,358" id="L_WebhookEP_Background_0" class="edge-thickness-normal edge-pattern-solid edge-thickness-normal edge-pattern-solid flowchart-link" style="" marker-end="url(#mermaid-svg-28_flowchart-v2-pointEnd)"/><path d="M813.008,440L815.947,446.167C818.887,452.333,824.766,464.667,895.079,479.853C965.393,495.039,1100.142,513.079,1167.516,522.098L1234.891,531.118" id="L_Background_JenkinsAPI_0" class="edge-thickness-normal edge-pattern-solid edge-thickness-normal edge-pattern-solid flowchart-link" style="" marker-end="url(#mermaid-svg-28_flowchart-v2-pointEnd)"/><path d="M1308.707,568L1308.707,574.167C1308.707,580.333,1308.707,592.667,1308.707,604.333C1308.707,616,1308.707,627,1308.707,632.5L1308.707,638" id="L_JenkinsAPI_SonarQubeAPI_0" class="edge-thickness-normal edge-pattern-solid edge-thickness-normal edge-pattern-solid flowchart-link" style="" marker-end="url(#mermaid-svg-28_flowchart-v2-pointEnd)"/><path d="M1288.769,696L1285.693,700.167C1282.616,704.333,1276.462,712.667,1122.892,723C969.322,733.333,668.335,745.667,517.841,757.333C367.348,769,367.348,780,367.348,785.5L367.348,791" id="L_SonarQubeAPI_SonarQubeEP_0" class="edge-thickness-normal edge-pattern-solid edge-thickness-normal edge-pattern-solid flowchart-link" style="" marker-end="url(#mermaid-svg-28_flowchart-v2-pointEnd)"/><path d="M367.348,873L367.348,879.167C367.348,885.333,367.348,897.667,367.348,910C367.348,922.333,367.348,934.667,380.525,948.774C393.703,962.882,420.058,978.764,433.236,986.704L446.413,994.645" id="L_SonarQubeEP_SonarClient_0" class="edge-thickness-normal edge-pattern-solid edge-thickness-normal edge-pattern-solid flowchart-link" style="" marker-end="url(#mermaid-svg-28_flowchart-v2-pointEnd)"/><path d="M539.45,996.71L553.198,988.425C566.947,980.14,594.444,963.57,608.193,949.118C621.941,934.667,621.941,922.333,621.941,903.5C621.941,884.667,621.941,859.333,621.941,834C621.941,808.667,621.941,783.333,744.469,764.5C866.996,745.667,1112.051,733.333,1231.154,723.488C1350.258,713.643,1343.41,706.285,1339.986,702.607L1336.562,698.928" id="L_SonarClient_SonarQubeAPI_0" class="edge-thickness-normal edge-pattern-solid edge-thickness-normal edge-pattern-solid flowchart-link" style="" marker-end="url(#mermaid-svg-28_flowchart-v2-pointEnd)"/><path d="M237.348,872.214L215.923,878.511C194.499,884.809,151.65,897.405,130.225,909.869C108.801,922.333,108.801,934.667,111.007,944.643C113.214,954.619,117.627,962.239,119.833,966.048L122.04,969.858" id="L_SonarQubeEP_DB_0" class="edge-thickness-normal edge-pattern-solid edge-thickness-normal edge-pattern-solid flowchart-link" style="" marker-end="url(#mermaid-svg-28_flowchart-v2-pointEnd)"/><path d="M497.348,864.615L529.467,872.179C561.587,879.743,625.827,894.872,657.947,908.602C690.066,922.333,690.066,934.667,739.589,950.812C789.111,966.958,888.155,986.916,937.678,996.896L987.2,1006.875" id="L_SonarQubeEP_Logs_0" class="edge-thickness-normal edge-pattern-solid edge-thickness-normal edge-pattern-solid flowchart-link" style="" marker-end="url(#mermaid-svg-28_flowchart-v2-pointEnd)"/><path d="M775.828,440L772.889,446.167C769.949,452.333,764.07,464.667,761.131,481.5C758.191,498.333,758.191,519.667,758.191,541C758.191,562.333,758.191,583.667,758.191,605C758.191,626.333,758.191,647.667,758.191,667C758.191,686.333,758.191,703.667,758.191,718.5C758.191,733.333,758.191,745.667,758.191,764.5C758.191,783.333,758.191,808.667,758.191,834C758.191,859.333,758.191,884.667,758.191,903.5C758.191,922.333,758.191,934.667,831.228,951.394C904.265,968.121,1050.339,989.242,1123.375,999.803L1196.412,1010.364" id="L_Background_Reports_0" class="edge-thickness-normal edge-pattern-solid edge-thickness-normal edge-pattern-solid flowchart-link" style="" marker-end="url(#mermaid-svg-28_flowchart-v2-pointEnd)"/><path d="M187.104,973.319L189.645,968.933C192.185,964.546,197.266,955.773,199.807,945.22C202.348,934.667,202.348,922.333,202.348,903.5C202.348,884.667,202.348,859.333,202.348,834C202.348,808.667,202.348,783.333,202.348,764.5C202.348,745.667,202.348,733.333,202.348,718.5C202.348,703.667,202.348,686.333,202.348,667C202.348,647.667,202.348,626.333,202.348,605C202.348,583.667,202.348,562.333,202.348,541C202.348,519.667,202.348,498.333,202.348,475C202.348,451.667,202.348,426.333,202.348,399C202.348,371.667,202.348,342.333,236.814,318.012C271.28,293.691,340.212,274.381,374.678,264.726L409.144,255.072" id="L_DB_WebhookEP_0" class="edge-thickness-normal edge-pattern-solid edge-thickness-normal edge-pattern-solid flowchart-link" style="" marker-end="url(#mermaid-svg-28_flowchart-v2-pointEnd)"/></g><g class="edgeLabels"><g class="edgeLabel" transform="translate(1193.19921875, 124)"><g class="label" transform="translate(-81.765625, -12)"><foreignObject width="163.53125" height="24"><div xmlns="http://www.w3.org/1999/xhtml" class="labelBkg" style="display: table-cell; white-space: nowrap; line-height: 1.5; max-width: 200px; text-align: center;"><span class="edgeLabel"><p>Push/Checkin события</p></span></div></foreignObject></g></g><g class="edgeLabel" transform="translate(1429.63671875, 124)"><g class="label" transform="translate(-49.40625, -12)"><foreignObject width="98.8125" height="24"><div xmlns="http://www.w3.org/1999/xhtml" class="labelBkg" style="display: table-cell; white-space: nowrap; line-height: 1.5; max-width: 200px; text-align: center;"><span class="edgeLabel"><p>Push события</p></span></div></foreignObject></g></g><g class="edgeLabel" transform="translate(794.41796875, 313)"><g class="label" transform="translate(-53.5546875, -24)"><foreignObject width="107.109375" height="48"><div xmlns="http://www.w3.org/1999/xhtml" class="labelBkg" style="display: table-cell; white-space: nowrap; line-height: 1.5; max-width: 200px; text-align: center;"><span class="edgeLabel"><p>Проверка auth<br />Валидация</p></span></div></foreignObject></g></g><g class="edgeLabel" transform="translate(1014.43701, 501.60498)"><g class="label" transform="translate(-52.453125, -12)"><foreignObject width="104.90625" height="24"><div xmlns="http://www.w3.org/1999/xhtml" class="labelBkg" style="display: table-cell; white-space: nowrap; line-height: 1.5; max-width: 200px; text-align: center;"><span class="edgeLabel"><p>Запуск задачи</p></span></div></foreignObject></g></g><g class="edgeLabel" transform="translate(1308.70703125, 605)"><g class="label" transform="translate(-45.609375, -12)"><foreignObject width="91.21875" height="24"><div xmlns="http://www.w3.org/1999/xhtml" class="labelBkg" style="display: table-cell; white-space: nowrap; line-height: 1.5; max-width: 200px; text-align: center;"><span class="edgeLabel"><p>Анализ кода</p></span></div></foreignObject></g></g><g class="edgeLabel" transform="translate(367.34765625, 758)"><g class="label" transform="translate(-73.75, -12)"><foreignObject width="147.5" height="24"><div xmlns="http://www.w3.org/1999/xhtml" class="labelBkg" style="display: table-cell; white-space: nowrap; line-height: 1.5; max-width: 200px; text-align: center;"><span class="edgeLabel"><p>Результаты анализа</p></span></div></foreignObject></g></g><g class="edgeLabel" transform="translate(367.34765625, 910)"><g class="label" transform="translate(-58, -12)"><foreignObject width="116" height="24"><div xmlns="http://www.w3.org/1999/xhtml" class="labelBkg" style="display: table-cell; white-space: nowrap; line-height: 1.5; max-width: 200px; text-align: center;"><span class="edgeLabel"><p>Запрос деталей</p></span></div></foreignObject></g></g><g class="edgeLabel" transform="translate(621.94140625, 834)"><g class="label" transform="translate(-89.59375, -12)"><foreignObject width="179.1875" height="24"><div xmlns="http://www.w3.org/1999/xhtml" class="labelBkg" style="display: table-cell; white-space: nowrap; line-height: 1.5; max-width: 200px; text-align: center;"><span class="edgeLabel"><p>Получение issues и кода</p></span></div></foreignObject></g></g><g class="edgeLabel" transform="translate(108.80078125, 910)"><g class="label" transform="translate(-73.546875, -12)"><foreignObject width="147.09375" height="24"><div xmlns="http://www.w3.org/1999/xhtml" class="labelBkg" style="display: table-cell; white-space: nowrap; line-height: 1.5; max-width: 200px; text-align: center;"><span class="edgeLabel"><p>Сохранение данных</p></span></div></foreignObject></g></g><g class="edgeLabel" transform="translate(690.06640625, 910)"><g class="label" transform="translate(-48.125, -12)"><foreignObject width="96.25" height="24"><div xmlns="http://www.w3.org/1999/xhtml" class="labelBkg" style="display: table-cell; white-space: nowrap; line-height: 1.5; max-width: 200px; text-align: center;"><span class="edgeLabel"><p>Логирование</p></span></div></foreignObject></g></g><g class="edgeLabel" transform="translate(758.19140625, 669)"><g class="label" transform="translate(-70.125, -12)"><foreignObject width="140.25" height="24"><div xmlns="http://www.w3.org/1999/xhtml" class="labelBkg" style="display: table-cell; white-space: nowrap; line-height: 1.5; max-width: 200px; text-align: center;"><span class="edgeLabel"><p>Генерация отчётов</p></span></div></foreignObject></g></g><g class="edgeLabel" transform="translate(202.34765625, 605)"><g class="label" transform="translate(-64.5234375, -12)"><foreignObject width="129.046875" height="24"><div xmlns="http://www.w3.org/1999/xhtml" class="labelBkg" style="display: table-cell; white-space: nowrap; line-height: 1.5; max-width: 200px; text-align: center;"><span class="edgeLabel"><p>Данные проектов</p></span></div></foreignObject></g></g></g><g class="nodes"><g class="node default" id="flowchart-TFS-0" transform="translate(1193.19921875, 60)"><rect class="basic label-container" style="" x="-95.9296875" y="-27" width="191.859375" height="54"/><g class="label" style="" transform="translate(-65.9296875, -12)"><rect/><foreignObject width="131.859375" height="24"><div xmlns="http://www.w3.org/1999/xhtml" style="display: table-cell; white-space: nowrap; line-height: 1.5; max-width: 200px; text-align: center;"><span class="nodeLabel"><p>Azure DevOps/TFS</p></span></div></foreignObject></g></g><g class="node default" id="flowchart-Git-1" transform="translate(1429.63671875, 60)"><rect class="basic label-container" style="" x="-90.5078125" y="-27" width="181.015625" height="54"/><g class="label" style="" transform="translate(-60.5078125, -12)"><rect/><foreignObject width="121.015625" height="24"><div xmlns="http://www.w3.org/1999/xhtml" style="display: table-cell; white-space: nowrap; line-height: 1.5; max-width: 200px; text-align: center;"><span class="nodeLabel"><p>Git репозитории</p></span></div></foreignObject></g></g><g class="node default" id="flowchart-SonarQubeAPI-2" transform="translate(1308.70703125, 669)"><rect class="basic label-container" style="" x="-81.796875" y="-27" width="163.59375" height="54"/><g class="label" style="" transform="translate(-51.796875, -12)"><rect/><foreignObject width="103.59375" height="24"><div xmlns="http://www.w3.org/1999/xhtml" style="display: table-cell; white-space: nowrap; line-height: 1.5; max-width: 200px; text-align: center;"><span class="nodeLabel"><p>SonarQube API</p></span></div></foreignObject></g></g><g class="node default" id="flowchart-JenkinsAPI-3" transform="translate(1308.70703125, 541)"><rect class="basic label-container" style="" x="-69.8515625" y="-27" width="139.703125" height="54"/><g class="label" style="" transform="translate(-39.8515625, -12)"><rect/><foreignObject width="79.703125" height="24"><div xmlns="http://www.w3.org/1999/xhtml" style="display: table-cell; white-space: nowrap; line-height: 1.5; max-width: 200px; text-align: center;"><span class="nodeLabel"><p>Jenkins API</p></span></div></foreignObject></g></g><g class="node default" id="flowchart-WebhookEP-4" transform="translate(516.49609375, 225)"><rect class="basic label-container" style="" x="-103.5" y="-39" width="207" height="78"/><g class="label" style="" transform="translate(-73.5, -24)"><rect/><foreignObject width="147" height="48"><div xmlns="http://www.w3.org/1999/xhtml" style="display: table-cell; white-space: nowrap; line-height: 1.5; max-width: 200px; text-align: center;"><span class="nodeLabel"><p>Эндпоинт /webhook<br />TFS/Git хуки</p></span></div></foreignObject></g></g><g class="node default" id="flowchart-SonarQubeEP-5" transform="translate(367.34765625, 834)"><rect class="basic label-container" style="" x="-130" y="-39" width="260" height="78"/><g class="label" style="" transform="translate(-100, -24)"><rect/><foreignObject width="200" height="48"><div xmlns="http://www.w3.org/1999/xhtml" style="display: table; white-space: break-spaces; line-height: 1.5; max-width: 200px; text-align: center; width: 200px;"><span class="nodeLabel"><p>Эндпоинт /sonarqube-webhook</p></span></div></foreignObject></g></g><g class="node default" id="flowchart-Background-6" transform="translate(794.41796875, 401)"><rect class="basic label-container" style="" x="-90.65625" y="-39" width="181.3125" height="78"/><g class="label" style="" transform="translate(-60.65625, -24)"><rect/><foreignObject width="121.3125" height="48"><div xmlns="http://www.w3.org/1999/xhtml" style="display: table-cell; white-space: nowrap; line-height: 1.5; max-width: 200px; text-align: center;"><span class="nodeLabel"><p>Фоновые задачи<br />BackgroundTasks</p></span></div></foreignObject></g></g><g class="node default" id="flowchart-DB-7" transform="translate(155.57421875, 1023.7099304199219)"><path d="M0,13.47328684225693 a73.0546875,13.47328684225693 0,0,0 146.109375,0 a73.0546875,13.47328684225693 0,0,0 -146.109375,0 l0,76.47328684225693 a73.0546875,13.47328684225693 0,0,0 146.109375,0 l0,-76.47328684225693" class="basic label-container" style="" transform="translate(-73.0546875, -51.709930263385395)"/><g class="label" style="" transform="translate(-65.5546875, -14)"><rect/><foreignObject width="131.109375" height="48"><div xmlns="http://www.w3.org/1999/xhtml" style="display: table-cell; white-space: nowrap; line-height: 1.5; max-width: 200px; text-align: center;"><span class="nodeLabel"><p>SQLite БД<br />Проекты, статусы</p></span></div></foreignObject></g></g><g class="node default" id="flowchart-SonarClient-8" transform="translate(494.64453125, 1023.7099304199219)"><rect class="basic label-container" style="" x="-109.890625" y="-27" width="219.78125" height="54"/><g class="label" style="" transform="translate(-79.890625, -12)"><rect/><foreignObject width="159.78125" height="24"><div xmlns="http://www.w3.org/1999/xhtml" style="display: table-cell; white-space: nowrap; line-height: 1.5; max-width: 200px; text-align: center;"><span class="nodeLabel"><p>SonarQube API клиент</p></span></div></foreignObject></g></g><g class="node default" id="flowchart-Logs-9" transform="translate(1070.74609375, 1023.7099304199219)"><rect class="basic label-container" style="" x="-79.625" y="-27" width="159.25" height="54"/><g class="label" style="" transform="translate(-49.625, -12)"><rect/><foreignObject width="99.25" height="24"><div xmlns="http://www.w3.org/1999/xhtml" style="display: table-cell; white-space: nowrap; line-height: 1.5; max-width: 200px; text-align: center;"><span class="nodeLabel"><p>Логи анализа</p></span></div></foreignObject></g></g><g class="node default" id="flowchart-Reports-10" transform="translate(1288.71484375, 1023.7099304199219)"><rect class="basic label-container" style="" x="-88.34375" y="-27" width="176.6875" height="54"/><g class="label" style="" transform="translate(-58.34375, -12)"><rect/><foreignObject width="116.6875" height="24"><div xmlns="http://www.w3.org/1999/xhtml" style="display: table-cell; white-space: nowrap; line-height: 1.5; max-width: 200px; text-align: center;"><span class="nodeLabel"><p>Отчёты с кодом</p></span></div></foreignObject></g></g><g class="node default" id="flowchart-Notifications-11" transform="translate(1506.67578125, 1023.7099304199219)"><rect class="basic label-container" style="" x="-79.6171875" y="-27" width="159.234375" height="54"/><g class="label" style="" transform="translate(-49.6171875, -12)"><rect/><foreignObject width="99.234375" height="24"><div xmlns="http://www.w3.org/1999/xhtml" style="display: table-cell; white-space: nowrap; line-height: 1.5; max-width: 200px; text-align: center;"><span class="nodeLabel"><p>Уведомления</p></span></div></foreignObject></g></g></g></g></g></svg>